<svg width="102" height="102" viewBox="0 0 102 102" fill="none" xmlns="http://www.w3.org/2000/svg">
<rect width="102" height="102" fill="#13505B"/>
<g clip-path="url(#clip0_635_7564)">
<path d="M49.4407 27.4546H62.0289V57.2727C62.0289 60.8182 61.1836 63.8864 59.4932 66.4773C57.8177 69.053 55.4782 71.0455 52.4745 72.4545C49.4709 73.8485 45.9842 74.5455 42.0145 74.5455C38.0146 74.5455 34.5128 73.8485 31.5091 72.4545C28.5055 71.0455 26.1659 69.053 24.4905 66.4773C22.8302 63.8864 22 60.8182 22 57.2727V27.4546H34.5883V56.1818C34.5883 57.6212 34.9052 58.9091 35.5392 60.0455C36.1732 61.1667 37.0486 62.0455 38.1656 62.6818C39.2975 63.3182 40.5805 63.6364 42.0145 63.6364C43.4635 63.6364 44.7464 63.3182 45.8634 62.6818C46.9804 62.0455 47.8557 61.1667 48.4897 60.0455C49.1237 58.9091 49.4407 57.6212 49.4407 56.1818V27.4546ZM80.6001 27.4546V74H68.0118V27.4546H80.6001Z" fill="white"/>
</g>
<defs>
<clipPath id="clip0_635_7564">
<rect width="58.7755" height="48" fill="white" transform="translate(22 27)"/>
</clipPath>
</defs>
</svg>
