<svg width="102" height="102" viewBox="0 0 102 102" fill="none" xmlns="http://www.w3.org/2000/svg">
<rect width="102" height="102" fill="#13505B"/>
<path d="M36.8863 27H49.679V57.3938C49.679 61.0077 48.8201 64.1351 47.1021 66.7761C45.3995 69.4015 43.0219 71.4324 39.9695 72.8687C36.917 74.2896 33.3737 75 29.3395 75C25.2747 75 21.716 74.2896 18.6636 72.8687C15.6111 71.4324 13.2336 69.4015 11.5309 66.7761C9.84365 64.1351 9 61.0077 9 57.3938V27H21.7927V56.2819C21.7927 57.749 22.1148 59.0618 22.7591 60.2201C23.4033 61.3629 24.293 62.2587 25.4281 62.9073C26.5785 63.556 27.8823 63.8803 29.3395 63.8803C30.8121 63.8803 32.1159 63.556 33.251 62.9073C34.3861 62.2587 35.2757 61.3629 35.92 60.2201C36.5642 59.0618 36.8863 57.749 36.8863 56.2819V27Z" fill="white"/>
<path d="M65.2606 27L72.9915 40.807H73.3596L81.1825 27H95.4478L81.3666 50.722L96 74.444H81.3666L73.3596 60.3591H72.9915L64.9845 74.444H50.4432L64.8925 50.722L50.9033 27H65.2606Z" fill="white"/>
</svg>
